<svg width="40" height="40" viewBox="0 0 40 40" fill="none" xmlns="http://www.w3.org/2000/svg">
<g clip-path="url(#clip0_1365_47)">
<path d="M8.875 34V4.90909H21.4886C23.7045 4.90909 25.5653 5.20739 27.071 5.80398C28.5862 6.40057 29.7273 7.24337 30.4943 8.33239C31.2708 9.4214 31.6591 10.7045 31.6591 12.1818C31.6591 13.2519 31.4223 14.2273 30.9489 15.108C30.4848 15.9886 29.8314 16.7273 28.9886 17.3239C28.1458 17.911 27.161 18.3182 26.0341 18.5455V18.8295C27.2841 18.8769 28.4205 19.1941 29.4432 19.7812C30.4659 20.3589 31.2803 21.1591 31.8864 22.1818C32.4924 23.1951 32.7955 24.3883 32.7955 25.7614C32.7955 27.3523 32.3788 28.768 31.5455 30.0085C30.7216 31.2491 29.5473 32.2244 28.0227 32.9347C26.4981 33.6449 24.6799 34 22.5682 34H8.875ZM16.7727 27.6932H20.4659C21.7917 27.6932 22.786 27.447 23.4489 26.9545C24.1117 26.4527 24.4432 25.714 24.4432 24.7386C24.4432 24.0568 24.2869 23.4792 23.9744 23.0057C23.6619 22.5322 23.2169 22.1723 22.6392 21.9261C22.071 21.6799 21.3845 21.5568 20.5795 21.5568H16.7727V27.6932ZM16.7727 16.6705H20.0114C20.7027 16.6705 21.3134 16.5616 21.8438 16.3438C22.3741 16.1259 22.786 15.8134 23.0795 15.4062C23.3826 14.9896 23.5341 14.483 23.5341 13.8864C23.5341 12.9867 23.2121 12.3002 22.5682 11.8267C21.9242 11.3438 21.1098 11.1023 20.125 11.1023H16.7727V16.6705Z" fill="black"/>
</g>
<defs>
<clipPath id="clip0_1365_47">
<rect width="40" height="40" fill="black"/>
</clipPath>
</defs>

<style>
    @media (prefers-color-scheme: dark) {
        path { fill: white; }
    }
</style>
</svg>
